<?xml version="1.0" standalone="no"?>
<!DOCTYPE svg PUBLIC "-//W3C//DTD SVG 20010904//EN"
 "http://www.w3.org/TR/2001/REC-SVG-20010904/DTD/svg10.dtd">
<svg version="1.0" xmlns="http://www.w3.org/2000/svg"
 width="1024.000000pt" height="1024.000000pt" viewBox="0 0 1024.000000 1024.000000"
 preserveAspectRatio="xMidYMid meet">

<g transform="translate(0.000000,1024.000000) scale(0.100000,-0.100000)"
fill="#000000" stroke="none">
<path d="M0 5120 l0 -5120 5120 0 5120 0 0 5120 0 5120 -5120 0 -5120 0 0
-5120z m2903 3849 c54 -24 77 -122 41 -176 -23 -37 -42 -51 -85 -63 l-36 -10
-2 -827 -2 -828 24 -32 c47 -63 89 -92 145 -99 60 -7 66 -13 57 -55 -7 -31 -8
-31 -61 -27 -70 6 -125 43 -179 122 l-40 58 -3 701 c-2 386 0 766 3 845 7 136
8 142 29 142 17 1 15 3 -10 14 -46 20 -64 52 -64 114 0 50 3 58 39 93 32 33
45 39 79 39 23 0 52 -5 65 -11z m4471 -240 c130 -48 195 -198 151 -347 -20
-65 -63 -116 -129 -150 -41 -21 -65 -26 -122 -26 -89 1 -147 27 -207 94 -70
78 -85 170 -46 277 26 67 96 143 149 160 58 18 144 15 204 -8z m-1863 -69
c494 -50 953 -272 1320 -639 251 -251 419 -526 518 -846 38 -123 91 -383 91
-448 l0 -48 -77 7 c-43 3 -81 10 -86 13 -4 4 -19 70 -32 146 -56 315 -149 547
-320 805 -98 147 -318 367 -475 475 -220 150 -481 269 -718 326 -259 62 -612
62 -864 -1 -343 -85 -616 -224 -893 -454 -218 -181 -432 -494 -528 -772 -58
-166 -107 -423 -123 -638 l-6 -88 -45 6 c-25 3 -63 6 -84 6 l-39 0 0 48 c0
157 67 523 125 692 107 306 230 503 470 749 265 273 519 433 887 560 282 96
581 131 879 101z m-2033 -154 c36 -33 37 -37 37 -101 0 -65 -1 -67 -41 -105
-52 -48 -100 -59 -153 -35 -49 22 -74 64 -75 130 -1 84 60 145 147 145 40 0
53 -5 85 -34z m2023 -251 c261 -34 499 -122 731 -268 376 -237 672 -661 757
-1084 41 -203 50 -483 20 -658 -34 -196 -158 -495 -262 -631 l-32 -42 -45 31
c-25 16 -62 46 -82 65 l-37 35 30 36 c91 114 190 351 226 541 24 128 24 408 0
536 -38 209 -130 421 -263 608 -175 248 -456 461 -729 554 -245 84 -399 107
-602 92 -287 -22 -534 -107 -778 -268 -121 -79 -344 -298 -423 -413 -102 -151
-188 -354 -238 -564 -22 -93 -30 -339 -14 -446 53 -366 222 -690 491 -943 102
-96 200 -161 364 -241 248 -122 435 -168 685 -169 138 -1 182 3 268 22 133 30
290 84 369 128 34 19 66 34 71 34 12 0 60 -107 64 -145 3 -27 -2 -32 -52 -57
-77 -38 -307 -113 -415 -134 -67 -14 -139 -18 -285 -19 -219 0 -265 6 -485 67
-121 33 -180 57 -302 119 -215 110 -337 195 -469 331 -144 148 -227 262 -315
432 -107 206 -157 382 -179 632 -37 404 108 849 391 1199 359 444 982 695
1540 620z m-2482 -26 c34 -12 38 -26 16 -68 -34 -67 -125 -49 -125 24 0 53 38
69 109 44z m-24 -657 c4 -280 4 -528 0 -551 -6 -36 -10 -42 -28 -39 -18 2 -23
12 -29 48 -3 25 -7 271 -7 548 l-1 502 29 0 28 0 8 -508z m210 468 c2 -4 -5
-24 -15 -46 -19 -36 -20 -60 -20 -353 l0 -314 -27 -46 -28 -46 -8 82 c-5 46
-5 210 0 368 4 157 4 286 0 288 -5 1 -9 18 -10 37 -2 27 3 36 22 46 23 12 74
3 86 -16z m2364 -164 c307 -67 600 -243 789 -473 71 -86 171 -266 218 -389
115 -306 101 -725 -35 -1009 -201 -423 -561 -704 -997 -780 -116 -20 -376 -20
-484 1 -361 68 -712 291 -895 569 -269 408 -315 865 -131 1285 79 180 212 365
341 474 93 78 246 179 337 220 95 44 262 96 363 112 107 18 394 12 494 -10z
m-3248 -26 c102 -52 105 -190 7 -250 -57 -34 -113 -25 -170 28 -70 65 -53 168
37 223 39 24 76 24 126 -1z m339 -172 c0 -11 -5 -28 -10 -39 -17 -32 -13 -714
4 -747 21 -40 116 -131 145 -140 14 -4 70 -7 124 -7 l98 0 -3 -35 -3 -35 -104
3 c-90 2 -110 6 -145 26 -60 36 -124 93 -154 140 l-27 41 -6 385 c-3 212 -7
394 -10 404 -6 28 35 48 67 34 13 -6 24 -20 24 -30z m-365 -176 c3 -21 5 -184
4 -363 -3 -372 -9 -346 92 -454 106 -113 96 -109 377 -113 l242 -4 0 -31 0
-32 -92 2 c-51 2 -165 4 -253 6 -174 3 -186 6 -257 69 -43 39 -131 154 -157
206 -16 33 -17 52 -11 172 6 113 4 139 -9 163 -12 23 -13 31 -3 34 9 4 12 52
12 194 l0 189 24 0 c20 0 25 -6 31 -38z m5745 -502 c23 -23 26 -55 5 -63 -17
-7 -30 9 -15 18 14 9 3 25 -24 34 -13 6 -31 3 -49 -6 -38 -19 -49 -7 -17 17
32 25 75 25 100 0z m120 -261 c0 -11 -5 -29 -10 -40 -10 -18 -24 -19 -300 -19
l-290 0 0 42 0 41 118 -5 c64 -3 196 -3 292 1 96 3 178 5 183 3 4 -2 7 -12 7
-23z m834 -90 c59 -51 61 -128 4 -181 -24 -22 -39 -28 -77 -28 -48 0 -107 28
-117 55 -5 13 -85 15 -625 15 l-619 0 0 34 0 34 609 -5 609 -6 17 38 c38 78
135 100 199 44z m-1544 -99 l0 -40 -69 0 c-38 0 -76 -3 -85 -6 -13 -5 -16 1
-16 29 0 39 -7 36 115 50 17 2 36 5 43 6 8 0 12 -13 12 -39z m-5448 -93 c24
-31 23 -98 -2 -130 -40 -51 -126 -43 -156 15 -48 92 95 195 158 115z m5438
-87 c0 -56 5 -54 -99 -44 -61 7 -61 7 -61 39 l0 32 73 10 c39 5 75 10 80 11 4
1 7 -20 7 -48z m-4436 34 c10 -4 16 -18 16 -35 l0 -29 -440 0 -440 0 -12 -25
c-17 -37 -32 -31 -25 12 12 70 1 67 375 73 185 3 376 7 424 8 47 1 93 -1 102
-4z m5382 -20 c4 -14 2 -30 -3 -35 -5 -5 -189 -10 -411 -11 l-402 -3 0 38 0
37 405 0 405 0 6 -26z m-5059 2 c1 -1 12 -65 23 -142 48 -335 146 -568 356
-847 124 -166 312 -339 488 -451 316 -201 620 -312 926 -337 l140 -12 0 -85 0
-85 -92 7 c-275 21 -602 114 -848 242 -88 45 -119 64 -285 179 -370 255 -649
614 -772 995 -35 108 -80 329 -89 435 -3 33 -7 73 -10 89 l-4 29 82 -7 c45 -4
83 -8 85 -10z m4038 -144 l65 3 0 -60 c0 -60 -34 -195 -101 -405 -35 -108
-150 -329 -240 -461 l-61 -89 -51 56 c-77 84 -77 80 -12 170 115 159 216 403
270 649 36 163 34 158 50 145 9 -7 40 -10 80 -8z m1270 -13 c4 -11 4 -32 0
-46 -6 -24 -8 -24 -58 -17 -29 4 -270 8 -537 8 l-485 1 0 30 0 30 507 0 c278
0 510 3 514 8 16 15 53 7 59 -14z m-5600 -32 l0 -27 -227 -3 c-210 -2 -227 -1
-232 16 -2 9 3 24 11 32 12 13 50 15 231 13 l217 -3 0 -28z m5365 -162 l0 -35
-420 -1 c-231 -1 -426 -2 -432 -3 -12 -1 -14 32 -3 62 3 9 99 12 430 12 l425
0 0 -35z m-5660 -10 c16 -8 36 -25 44 -37 32 -45 12 -143 -33 -168 -11 -5 -40
-10 -64 -10 -39 0 -49 5 -76 35 -25 29 -31 45 -31 81 0 39 5 51 34 80 38 38
77 44 126 19z m5730 -100 c31 -28 45 -88 31 -123 -19 -44 -54 -73 -98 -79 -32
-4 -45 0 -71 22 -44 37 -59 91 -38 136 23 49 61 71 114 66 24 -3 52 -13 62
-22z m-451 -80 c30 -15 61 -69 61 -104 0 -36 -38 -100 -70 -116 -51 -26 -88
-20 -131 24 -33 33 -39 45 -39 80 0 54 11 74 58 106 42 28 80 32 121 10z
m-1531 -321 c31 -26 59 -48 61 -50 2 -2 -5 -11 -16 -21 -11 -10 -71 -74 -134
-142 -116 -125 -184 -176 -200 -149 -13 20 -22 95 -15 120 3 13 58 78 121 145
63 68 115 127 115 133 0 16 7 12 68 -36z m240 -210 c2 -14 -37 -60 -129 -152
-72 -73 -137 -132 -143 -132 -6 0 -26 14 -44 31 l-33 29 115 129 c146 163 150
165 196 136 19 -12 36 -31 38 -41z m160 -145 l42 -46 -107 -118 c-94 -103
-109 -115 -118 -100 -5 10 -22 32 -37 49 l-27 31 -30 -29 c-16 -16 -37 -43
-45 -60 -9 -17 -16 -25 -16 -17 0 8 12 30 27 50 45 60 256 292 263 289 3 -2
25 -24 48 -49z m187 -186 c62 -72 293 -319 330 -353 54 -50 69 -116 41 -183
-26 -64 -113 -118 -186 -116 -25 0 -25 0 -2 9 12 5 22 18 22 28 0 21 -33 56
-43 45 -4 -3 -7 -1 -7 6 0 6 -17 28 -37 47 -20 20 -51 53 -67 74 -17 20 -87
86 -154 145 -68 60 -126 114 -129 122 -3 7 19 39 48 71 30 32 70 81 89 110 19
28 37 52 40 52 3 0 28 -26 55 -57z m-3671 -21 c108 -37 193 -149 203 -269 10
-127 -37 -233 -135 -303 -77 -56 -139 -74 -227 -67 -124 9 -230 78 -282 185
-24 49 -28 69 -27 138 0 71 4 90 32 147 39 79 111 147 185 177 64 25 163 22
251 -8z m2076 -1238 c139 -41 256 -138 317 -261 31 -63 37 -87 41 -156 11
-214 -94 -390 -296 -495 -81 -43 -82 -43 -82 -19 0 22 -58 116 -102 164 -11
12 -18 27 -16 33 2 6 34 30 72 53 55 34 75 53 99 96 81 143 -6 311 -175 336
-107 16 -218 -36 -268 -125 -19 -36 -24 -59 -24 -115 0 -87 28 -147 112 -237
118 -127 242 -280 242 -297 0 -10 55 -75 123 -146 67 -70 126 -134 130 -142 6
-9 -2 -30 -22 -60 -50 -76 -35 -73 39 7 119 128 122 135 137 273 7 67 11 131
8 143 -4 20 0 21 108 27 180 11 227 9 227 -7 0 -61 -35 -258 -55 -311 -39
-105 -103 -225 -159 -300 -29 -38 -59 -81 -66 -95 -13 -24 -12 -25 7 -7 11 9
25 17 31 17 7 0 42 -31 79 -68 38 -38 127 -120 198 -182 72 -63 132 -118 133
-122 2 -4 -87 -8 -197 -8 l-201 0 -94 86 c-52 47 -96 90 -99 97 -2 6 -31 -8
-71 -36 -157 -110 -272 -149 -436 -150 -204 0 -323 46 -455 177 -64 63 -90 98
-118 156 -122 258 -43 516 215 697 43 30 78 58 78 62 0 4 -23 34 -51 66 -90
107 -139 239 -139 375 0 257 167 449 425 490 80 12 238 4 305 -16z m-1724 -14
c132 -14 234 -50 360 -126 60 -36 115 -71 123 -79 11 -11 0 -34 -65 -141 -43
-71 -93 -144 -109 -163 l-31 -34 -55 37 c-66 44 -207 102 -279 116 -69 13
-694 13 -741 0 -88 -24 -140 -83 -147 -165 -9 -108 47 -190 151 -219 28 -9
135 -24 237 -35 606 -67 713 -84 811 -133 86 -43 191 -145 229 -222 55 -111
76 -290 49 -418 -38 -185 -184 -352 -374 -429 -60 -24 -61 -24 -520 -27 -564
-4 -561 -4 -804 120 -86 44 -162 84 -168 90 -10 8 -5 20 21 52 18 22 55 74 82
115 27 41 61 92 76 114 15 22 29 45 31 51 2 6 20 -4 41 -22 78 -68 223 -124
366 -142 118 -14 682 -13 731 1 50 15 108 64 125 105 33 79 5 171 -68 224 -72
52 -80 54 -623 115 -336 38 -413 56 -520 120 -176 106 -265 273 -266 500 -1
184 49 320 160 438 71 75 159 125 267 151 71 17 761 22 910 6z m4102 -18 c45
-12 106 -34 135 -48 87 -44 237 -135 237 -143 0 -5 -37 -65 -82 -134 -46 -70
-95 -147 -111 -172 l-27 -46 -43 35 c-53 43 -188 107 -277 131 -53 15 -120 19
-365 22 -343 5 -422 -2 -484 -43 -104 -68 -114 -209 -23 -307 39 -41 128 -64
339 -87 386 -42 620 -72 688 -87 207 -45 365 -200 405 -398 20 -94 16 -248 -9
-325 -61 -193 -245 -365 -427 -399 -27 -5 -258 -11 -514 -12 -416 -2 -472 -1
-528 15 -90 24 -160 57 -289 134 -106 63 -127 82 -103 97 6 3 29 34 52 68 23
34 62 85 86 112 25 28 51 64 60 81 l15 32 46 -36 c61 -46 148 -87 246 -113 73
-20 110 -23 423 -27 241 -3 358 -1 390 8 99 24 162 94 162 180 0 123 -99 195
-300 219 -191 23 -438 52 -560 67 -235 28 -368 78 -477 177 -41 38 -65 72 -98
141 -52 109 -68 181 -68 301 2 257 117 445 330 536 108 46 131 48 623 45 440
-2 469 -4 548 -24z m784 -856 c4 -6 8 -25 8 -43 0 -23 -5 -33 -20 -38 -28 -9
-25 -22 9 -40 27 -14 29 -17 20 -47 -20 -72 -89 -90 -134 -36 l-27 32 22 18
c27 22 41 23 34 3 -8 -20 13 -45 37 -45 27 0 36 40 13 56 -36 25 -75 69 -80
92 -7 25 17 59 51 72 20 8 54 -4 67 -24z m192 12 c20 -29 20 -67 0 -96 -16
-23 -12 -42 10 -42 8 0 19 -6 25 -14 18 -22 -42 -86 -79 -86 -44 0 -117 97
-93 121 8 8 15 3 26 -17 33 -63 98 -87 105 -37 3 18 -1 21 -29 20 -30 -2 -33
1 -50 51 -19 55 -14 97 14 114 23 15 56 8 71 -14z m183 7 c34 -24 35 -52 2
-72 l-28 -17 39 -36 c22 -20 40 -42 40 -48 0 -6 -14 -27 -31 -47 -41 -47 -86
-49 -123 -4 -30 35 -30 38 -12 62 18 23 26 21 26 -6 0 -29 35 -48 68 -36 34
13 27 34 -27 74 -28 20 -53 45 -56 55 -7 24 8 54 37 74 28 20 38 20 65 1z
m-6937 -17 c26 -28 25 -46 -2 -76 l-23 -24 38 -33 c20 -17 37 -36 37 -42 0
-15 -67 -43 -102 -43 -34 0 -78 33 -78 59 0 9 14 24 30 33 33 19 37 33 15 62
-21 28 -19 52 7 70 31 22 54 20 78 -6z m1634 -1500 c14 -23 -8 -48 -26 -30 -7
7 -25 12 -40 12 -44 0 -38 -35 10 -50 20 -7 47 -19 60 -26 37 -24 26 -91 -19
-114 -30 -16 -119 14 -119 41 0 23 9 24 56 2 35 -17 36 -17 50 2 20 27 18 34
-13 46 -77 30 -92 40 -98 60 -11 35 45 81 92 77 21 -2 41 -10 47 -20z m252 12
c40 0 54 -4 54 -14 0 -9 -17 -16 -50 -21 -27 -4 -50 -11 -50 -15 0 -29 15 -40
51 -40 32 0 39 -4 39 -19 0 -16 -8 -20 -42 -23 -36 -2 -44 -7 -46 -25 -3 -21
0 -23 47 -23 48 0 72 -13 55 -30 -5 -4 -39 -10 -76 -12 l-68 -4 0 119 c0 105
2 118 16 113 9 -3 40 -6 70 -6z m342 -88 c47 -110 51 -132 22 -132 -13 0 -20
7 -20 19 0 29 -21 39 -70 32 -37 -5 -46 -10 -48 -28 -2 -15 -10 -23 -24 -23
-17 0 -20 5 -15 28 9 42 88 202 101 202 6 0 30 -44 54 -98z m607 81 c39 -19
42 -25 20 -43 -12 -10 -21 -9 -47 3 -50 24 -88 -7 -88 -72 0 -40 26 -65 59
-56 62 15 79 16 86 5 10 -16 -5 -29 -51 -45 -34 -11 -43 -11 -67 3 -87 51 -88
151 -2 203 37 23 45 23 90 2z m203 -36 l3 -47 45 0 44 0 0 45 c0 38 3 45 20
45 19 0 20 -7 20 -109 0 -89 -3 -110 -15 -115 -21 -8 -29 16 -21 66 l7 41 -38
-7 c-21 -3 -46 -6 -56 -6 -16 0 -17 -6 -11 -51 7 -49 6 -51 -17 -47 -23 3 -24
6 -27 98 -3 113 2 143 26 138 13 -2 18 -15 20 -51z m602 33 c0 -16 -9 -21 -50
-26 -46 -6 -50 -9 -50 -33 0 -25 2 -26 40 -23 35 4 40 2 40 -17 0 -18 -6 -21
-40 -21 -35 0 -40 -3 -40 -24 0 -21 6 -24 54 -30 36 -5 56 -13 60 -23 4 -9 5
-17 4 -18 -2 -1 -40 0 -85 3 l-83 5 0 108 0 108 73 4 c39 1 73 4 75 5 1 1 2
-7 2 -18z m201 -12 c17 -18 45 -53 62 -77 l32 -43 3 71 c3 63 5 71 22 71 19 0
20 -7 20 -105 0 -97 -1 -105 -19 -105 -11 0 -35 18 -53 41 -18 23 -46 55 -61
73 l-28 31 6 -77 c7 -77 6 -78 -17 -78 -23 0 -23 0 -20 115 2 68 7 115 13 115
6 0 24 -15 40 -32z m438 13 c15 -12 22 -24 18 -34 -6 -15 -10 -15 -42 -1 -39
16 -67 8 -85 -26 -22 -41 -3 -78 57 -109 17 -9 25 -8 37 5 20 19 21 48 2 41
-18 -7 -36 11 -29 29 6 17 21 18 56 2 30 -15 34 -36 13 -77 -32 -62 -103 -58
-159 8 -46 55 -32 115 38 161 37 25 63 25 94 1z m212 -16 c4 -17 7 -67 8 -112
1 -75 -1 -83 -18 -83 -15 0 -19 11 -24 68 -4 37 -7 89 -7 115 0 41 3 48 17 45
10 -2 21 -16 24 -33z m243 -32 l66 -68 0 68 c0 65 1 68 23 65 21 -3 22 -6 20
-112 -1 -105 -8 -133 -28 -118 -6 4 -35 37 -64 75 -30 37 -59 67 -64 67 -6 0
-7 -15 -3 -35 3 -19 9 -51 12 -70 6 -33 5 -35 -20 -35 l-26 0 0 115 c0 63 4
115 9 115 5 0 38 -30 75 -67z m-2190 36 c33 -26 34 -68 5 -109 -21 -27 -21
-30 -5 -54 33 -51 12 -49 -43 4 -53 52 -65 51 -56 -1 7 -39 6 -40 -16 -37 -23
3 -24 6 -27 111 l-3 107 59 0 c45 0 66 -5 86 -21z m2596 -4 c0 -18 -5 -20 -50
-17 -48 4 -50 3 -50 -22 0 -25 3 -26 50 -26 43 0 50 -3 50 -20 0 -18 -7 -20
-55 -20 -54 0 -55 0 -55 -30 0 -27 2 -29 30 -25 17 3 44 7 60 10 27 4 30 2 30
-20 0 -25 -2 -25 -80 -25 l-80 0 0 108 0 107 75 0 c68 0 75 -2 75 -20z m809
-91 c1 -1 0 -7 -4 -13 -4 -8 -113 -11 -336 -11 -281 0 -329 2 -329 15 0 10 16
15 58 18 61 4 605 -3 611 -9z m-4699 -3 c0 -15 -115 -21 -422 -20 -253 0 -298
2 -298 15 0 12 53 14 360 14 202 0 360 -4 360 -9z"/>
<path d="M2797 8902 c-23 -25 -22 -84 1 -105 51 -47 131 25 100 90 -17 36 -74
45 -101 15z"/>
<path d="M7195 8664 c-71 -37 -115 -105 -115 -179 0 -61 19 -103 65 -143 47
-42 76 -53 139 -54 129 -1 219 159 157 280 -49 95 -163 139 -246 96z"/>
<path d="M3334 8462 c-39 -26 -40 -100 -1 -127 35 -24 72 -19 101 16 29 35 34
80 10 103 -16 17 -90 22 -110 8z"/>
<path d="M5161 7710 c-260 -37 -440 -113 -635 -271 -246 -198 -398 -513 -413
-855 -5 -111 -2 -147 17 -240 38 -185 101 -333 208 -484 222 -315 691 -526
1075 -482 266 30 545 164 713 345 219 234 344 534 344 826 0 492 -305 931
-760 1096 -156 56 -403 85 -549 65z m453 -297 c26 -18 56 -33 65 -33 9 0 29
-9 45 -19 17 -11 33 -18 38 -15 4 3 8 0 8 -7 0 -7 3 -9 7 -6 10 11 33 -13 33
-34 0 -15 7 -19 32 -19 32 0 68 -24 68 -44 0 -7 20 -32 45 -56 25 -25 43 -50
41 -57 -3 -7 -2 -12 2 -11 8 3 59 -29 81 -50 7 -7 21 -10 30 -7 12 3 31 -10
59 -40 23 -25 39 -45 37 -45 -3 0 1 -10 9 -23 23 -33 73 -192 87 -271 27 -160
-9 -399 -87 -566 -52 -110 -99 -175 -203 -284 -137 -141 -281 -224 -473 -272
-94 -24 -116 -25 -253 -21 -130 4 -163 9 -253 36 -149 45 -211 72 -309 137
-249 162 -432 483 -447 783 -3 47 -2 74 0 59 4 -20 11 -28 25 -28 22 0 52 24
42 33 -3 4 6 20 21 37 14 17 26 38 26 46 0 8 4 14 8 14 5 0 17 18 27 39 12 27
26 42 44 46 25 6 78 56 108 103 9 12 22 22 30 22 8 0 20 6 26 13 7 7 42 45 80
85 45 49 67 80 67 97 0 18 5 25 20 25 11 0 20 4 20 9 0 5 9 13 20 16 11 3 20
15 20 26 0 10 5 19 10 19 6 0 10 7 10 15 0 8 16 19 39 25 35 9 53 27 55 55 1
5 10 11 20 13 11 2 36 22 57 43 21 21 45 39 54 39 9 0 26 11 38 24 14 15 43
29 77 36 159 33 298 55 320 51 14 -2 47 -19 74 -38z"/>
<path d="M5955 7108 c43 -53 44 -54 41 -35 -1 8 -19 29 -41 48 l-39 34 39 -47z"/>
<path d="M2207 7773 c-31 -35 -31 -68 0 -97 34 -31 61 -33 97 -5 52 41 21 119
-47 119 -20 0 -41 -7 -50 -17z"/>
<path d="M8867 6602 c-36 -39 -13 -93 45 -107 21 -6 30 -2 43 19 21 31 23 70
5 91 -17 21 -73 19 -93 -3z"/>
<path d="M1896 6428 c-30 -42 -14 -78 34 -78 33 0 50 17 50 50 0 51 -55 69
-84 28z"/>
<path d="M2642 5984 c-33 -23 -31 -86 4 -113 36 -28 60 -26 95 8 54 54 29 121
-46 121 -17 0 -41 -7 -53 -16z"/>
<path d="M8359 5879 c-28 -28 -22 -69 13 -88 25 -14 29 -14 55 5 37 27 42 67
11 88 -30 22 -54 20 -79 -5z"/>
<path d="M7922 5794 c-32 -22 -30 -76 4 -103 34 -27 40 -26 69 4 44 43 22 115
-35 115 -9 0 -26 -7 -38 -16z"/>
<path d="M3183 4881 c-69 -32 -131 -96 -148 -154 -32 -107 -12 -181 65 -251
47 -42 118 -76 159 -76 91 0 174 56 222 150 32 61 32 158 2 216 -57 108 -199
163 -300 115z m161 -150 c20 -20 30 -42 33 -73 5 -42 3 -47 -29 -72 -46 -35
-87 -42 -126 -22 -70 36 -75 126 -10 181 26 22 38 25 67 20 20 -3 49 -19 65
-34z"/>
<path d="M5028 2512 c-104 -78 -151 -173 -133 -269 30 -162 208 -268 392 -234
120 22 196 68 233 142 11 21 20 40 20 41 0 2 -19 3 -42 4 -46 0 -33 -12 -263
242 -60 67 -118 121 -127 122 -9 0 -45 -21 -80 -48z"/>
<path d="M8567 2833 c-13 -13 -7 -40 14 -59 20 -18 21 -18 35 1 17 23 18 37 2
53 -13 13 -41 16 -51 5z"/>
<path d="M8776 2834 c-9 -24 -7 -62 4 -69 10 -6 50 29 50 44 0 12 -28 41 -40
41 -4 0 -11 -7 -14 -16z"/>
<path d="M8961 2822 c-14 -27 2 -46 33 -38 28 7 33 25 14 44 -17 17 -36 15
-47 -6z"/>
<path d="M2017 2833 c-14 -13 -6 -31 19 -48 34 -22 53 -7 36 30 -11 23 -40 33
-55 18z"/>
<path d="M2004 2696 c-9 -36 2 -45 44 -39 20 3 39 7 41 9 6 5 -53 53 -66 54
-7 0 -15 -11 -19 -24z"/>
<path d="M4231 1259 c-6 -18 -11 -34 -11 -35 0 -2 14 -4 30 -4 17 0 30 2 30 5
0 9 -30 65 -34 65 -2 0 -9 -14 -15 -31z"/>
<path d="M4510 1285 c0 -31 36 -51 75 -41 61 15 37 66 -31 66 -40 0 -44 -2
-44 -25z"/>
</g>
</svg>
